<svg xmlns="http://www.w3.org/2000/svg" viewBox="0 0 1024 1024">
  <defs>
    <radialGradient id="targetFill" cx="54%" cy="43%" r="62%">
      <stop offset="0" stop-color="#aaff14" stop-opacity=".88"/>
      <stop offset=".18" stop-color="#75d70a" stop-opacity=".74"/>
      <stop offset=".58" stop-color="#1f6b06" stop-opacity=".9"/>
      <stop offset="1" stop-color="#0a3f06" stop-opacity=".96"/>
    </radialGradient>
    <radialGradient id="targetHotspot" cx="50%" cy="50%" r="50%">
      <stop offset="0" stop-color="#f1ff8a" stop-opacity=".88"/>
      <stop offset=".34" stop-color="#a8ff08" stop-opacity=".36"/>
      <stop offset="1" stop-color="#a8ff08" stop-opacity="0"/>
    </radialGradient>
    <radialGradient id="ballFill" cx="37%" cy="29%" r="72%">
      <stop offset="0" stop-color="#ffffff"/>
      <stop offset=".42" stop-color="#f4f6f3"/>
      <stop offset=".67" stop-color="#aeb4ad"/>
      <stop offset=".86" stop-color="#4c514b"/>
      <stop offset="1" stop-color="#111411"/>
    </radialGradient>
    <radialGradient id="ballGreen" cx="73%" cy="75%" r="42%">
      <stop offset="0" stop-color="#8cff00" stop-opacity=".78"/>
      <stop offset=".5" stop-color="#45b800" stop-opacity=".28"/>
      <stop offset="1" stop-color="#45b800" stop-opacity="0"/>
    </radialGradient>
    <filter id="softTargetGlow" x="-16%" y="-20%" width="132%" height="140%">
      <feGaussianBlur stdDeviation="6"/>
    </filter>
    <filter id="softShadow" x="-40%" y="-40%" width="180%" height="180%">
      <feGaussianBlur stdDeviation="8"/>
    </filter>
  </defs>
  <g transform="rotate(4 512 512)">
    <ellipse cx="563" cy="830" rx="72" ry="22" fill="#8cff00" opacity=".24" filter="url(#softShadow)"/>
    <circle cx="548" cy="754" r="70" fill="url(#ballFill)"/>
    <circle cx="548" cy="754" r="70" fill="url(#ballGreen)"/>
    <g fill="#ffffff" opacity=".22">
      <circle cx="510" cy="714" r="7"/><circle cx="530" cy="705" r="7"/><circle cx="552" cy="703" r="7"/><circle cx="575" cy="707" r="7"/><circle cx="595" cy="718" r="7"/>
      <circle cx="501" cy="737" r="7"/><circle cx="523" cy="729" r="7"/><circle cx="547" cy="728" r="7"/><circle cx="571" cy="733" r="7"/><circle cx="592" cy="746" r="7"/>
      <circle cx="506" cy="762" r="7"/><circle cx="529" cy="755" r="7"/><circle cx="553" cy="758" r="7"/><circle cx="576" cy="767" r="7"/>
      <circle cx="520" cy="785" r="7"/><circle cx="543" cy="785" r="7"/><circle cx="565" cy="792" r="7"/>
    </g>
    <g transform="rotate(-14 690 298)">
      <ellipse cx="690" cy="298" rx="315" ry="142" fill="#a8ff08" opacity=".18" filter="url(#softTargetGlow)"/>
      <ellipse cx="690" cy="298" rx="296" ry="126" fill="url(#targetFill)" stroke="#aaff18" stroke-width="3.5"/>
      <ellipse cx="690" cy="298" rx="142" ry="48" fill="none" stroke="#f7fff2" stroke-width="4"/>
      <ellipse cx="690" cy="298" rx="42" ry="21" fill="url(#targetHotspot)"/>
    </g>
    <g fill="#ffffff" stroke="#d9ded8" stroke-width="1.5" opacity=".96">
      <circle cx="548" cy="654" r="7"/>
      <circle cx="550" cy="626" r="6.5"/>
      <circle cx="552" cy="598" r="6"/>
      <circle cx="555" cy="570" r="5.8"/>
      <circle cx="558" cy="542" r="5.5"/>
      <circle cx="562" cy="514" r="5.2"/>
      <circle cx="568" cy="486" r="5"/>
      <circle cx="575" cy="459" r="4.8"/>
      <circle cx="585" cy="433" r="4.6"/>
      <circle cx="597" cy="408" r="4.4"/>
      <circle cx="611" cy="385" r="4.2"/>
      <circle cx="626" cy="366" r="3.9"/>
      <circle cx="644" cy="351" r="3.6"/>
    </g>
  </g>
</svg>
