<svg xmlns="http://www.w3.org/2000/svg" viewBox="0 0 512 512">
  <defs>
    <filter id="shadow" x="-20%" y="-20%" width="140%" height="140%">
      <feDropShadow dx="0" dy="18" stdDeviation="16" flood-color="#000000" flood-opacity=".42"/>
    </filter>
    <linearGradient id="flagRed" x1="0" y1="0" x2="0" y2="1">
      <stop offset="0" stop-color="#ff3131"/>
      <stop offset="1" stop-color="#b50f1c"/>
    </linearGradient>
    <linearGradient id="pole" x1="0" y1="0" x2="1" y2="0">
      <stop offset="0" stop-color="#ffffff"/>
      <stop offset=".48" stop-color="#d8dedb"/>
      <stop offset="1" stop-color="#ffffff"/>
    </linearGradient>
  </defs>
  <g filter="url(#shadow)">
    <rect x="142" y="78" width="24" height="356" rx="12" fill="url(#pole)"/>
    <path d="M166 91 C220 62 272 88 331 79 C343 77 351 88 351 100 L351 234 C351 245 344 253 333 254 C272 260 219 229 166 259 Z" fill="url(#flagRed)"/>
    <path d="M166 91 C220 62 272 88 331 79 C343 77 351 88 351 100 L351 124 C285 137 232 105 166 139 Z" fill="#ff6b6b" opacity=".32"/>
    <ellipse cx="154" cy="438" rx="62" ry="18" fill="#122315" opacity=".92"/>
    <ellipse cx="154" cy="438" rx="34" ry="8" fill="#7cffaa" opacity=".26"/>
  </g>
</svg>